<?xml version="1.0" encoding="utf-8" ?>
<svg baseProfile="tiny" height="132" version="1.2" width="948" xmlns="http://www.w3.org/2000/svg" xmlns:ev="http://www.w3.org/2001/xml-events" xmlns:xlink="http://www.w3.org/1999/xlink"><defs /><text fill="black" font-size="12px" text-anchor="end" x="838" y="15">Total: 618</text><rect fill="#ebedf0" height="12" stroke="none" width="12" x="0" y="36" /><rect fill="#ebedf0" height="12" stroke="none" width="12" x="0" y="52" /><rect fill="#ebedf0" height="12" stroke="none" width="12" x="0" y="68" /><rect fill="#ebedf0" height="12" stroke="none" width="12" x="0" y="84" /><rect fill="#ebedf0" height="12" stroke="none" width="12" x="0" y="100" /><rect fill="#ebedf0" height="12" stroke="none" width="12" x="0" y="116" /><rect fill="#ebedf0" height="12" stroke="none" width="12" x="16" y="20" /><rect fill="#ebedf0" height="12" stroke="none" width="12" x="16" y="36" /><rect fill="#c6e48b" height="12" stroke="none" width="12" x="16" y="52" /><rect fill="#ebedf0" height="12" stroke="none" width="12" x="16" y="68" /><rect fill="#ebedf0" height="12" stroke="none" width="12" x="16" y="84" /><rect fill="#ebedf0" height="12" stroke="none" width="12" x="16" y="100" /><rect fill="#c6e48b" height="12" stroke="none" width="12" x="16" y="116" /><rect fill="#c6e48b" height="12" stroke="none" width="12" x="32" y="20" /><rect fill="#ebedf0" height="12" stroke="none" width="12" x="32" y="36" /><rect fill="#ebedf0" height="12" stroke="none" width="12" x="32" y="52" /><rect fill="#ebedf0" height="12" stroke="none" width="12" x="32" y="68" /><rect fill="#ebedf0" height="12" stroke="none" width="12" x="32" y="84" /><rect fill="#ebedf0" height="12" stroke="none" width="12" x="32" y="100" /><rect fill="#ebedf0" height="12" stroke="none" width="12" x="32" y="116" /><rect fill="#c6e48b" height="12" stroke="none" width="12" x="48" y="20" /><rect fill="#ebedf0" height="12" stroke="none" width="12" x="48" y="36" /><rect fill="#ebedf0" height="12" stroke="none" width="12" x="48" y="52" /><rect fill="#c6e48b" height="12" stroke="none" width="12" x="48" y="68" /><rect fill="#ebedf0" height="12" stroke="none" width="12" x="48" y="84" /><rect fill="#ebedf0" height="12" stroke="none" width="12" x="48" y="100" /><rect fill="#c6e48b" height="12" stroke="none" width="12" x="48" y="116" /><rect fill="#c6e48b" height="12" stroke="none" width="12" x="64" y="20" /><rect fill="#ebedf0" height="12" stroke="none" width="12" x="64" y="36" /><rect fill="#ebedf0" height="12" stroke="none" width="12" x="64" y="52" /><rect fill="#ebedf0" height="12" stroke="none" width="12" x="64" y="68" /><rect fill="#ebedf0" height="12" stroke="none" width="12" x="64" y="84" /><rect fill="#c6e48b" height="12" stroke="none" width="12" x="64" y="100" /><rect fill="#ebedf0" height="12" stroke="none" width="12" x="64" y="116" /><rect fill="#c6e48b" height="12" stroke="none" width="12" x="80" y="20" /><rect fill="#ebedf0" height="12" stroke="none" width="12" x="80" y="36" /><rect fill="#ebedf0" height="12" stroke="none" width="12" x="80" y="52" /><rect fill="#c6e48b" height="12" stroke="none" width="12" x="80" y="68" /><rect fill="#c6e48b" height="12" stroke="none" width="12" x="80" y="84" /><rect fill="#c6e48b" height="12" stroke="none" width="12" x="80" y="100" /><rect fill="#ebedf0" height="12" stroke="none" width="12" x="80" y="116" /><rect fill="#c6e48b" height="12" stroke="none" width="12" x="96" y="20" /><rect fill="#ebedf0" height="12" stroke="none" width="12" x="96" y="36" /><rect fill="#ebedf0" height="12" stroke="none" width="12" x="96" y="52" /><rect fill="#ebedf0" height="12" stroke="none" width="12" x="96" y="68" /><rect fill="#c6e48b" height="12" stroke="none" width="12" x="96" y="84" /><rect fill="#c6e48b" height="12" stroke="none" width="12" x="96" y="100" /><rect fill="#ebedf0" height="12" stroke="none" width="12" x="96" y="116" /><rect fill="#c6e48b" height="12" stroke="none" width="12" x="112" y="20" /><rect fill="#c6e48b" height="12" stroke="none" width="12" x="112" y="36" /><rect fill="#ebedf0" height="12" stroke="none" width="12" x="112" y="52" /><rect fill="#c6e48b" height="12" stroke="none" width="12" x="112" y="68" /><rect fill="#c6e48b" height="12" stroke="none" width="12" x="112" y="84" /><rect fill="#c6e48b" height="12" stroke="none" width="12" x="112" y="100" /><rect fill="#ebedf0" height="12" stroke="none" width="12" x="112" y="116" /><rect fill="#c6e48b" height="12" stroke="none" width="12" x="128" y="20" /><rect fill="#ebedf0" height="12" stroke="none" width="12" x="128" y="36" /><rect fill="#ebedf0" height="12" stroke="none" width="12" x="128" y="52" /><rect fill="#ebedf0" height="12" stroke="none" width="12" x="128" y="68" /><rect fill="#ebedf0" height="12" stroke="none" width="12" x="128" y="84" /><rect fill="#ebedf0" height="12" stroke="none" width="12" x="128" y="100" /><rect fill="#ebedf0" height="12" stroke="none" width="12" x="128" y="116" /><rect fill="#ebedf0" height="12" stroke="none" width="12" x="144" y="20" /><rect fill="#ebedf0" height="12" stroke="none" width="12" x="144" y="36" /><rect fill="#239a3b" height="12" stroke="none" width="12" x="144" y="52" /><rect fill="#ebedf0" height="12" stroke="none" width="12" x="144" y="68" /><rect fill="#ebedf0" height="12" stroke="none" width="12" x="144" y="84" /><rect fill="#ebedf0" height="12" stroke="none" width="12" x="144" y="100" /><rect fill="#ebedf0" height="12" stroke="none" width="12" x="144" y="116" /><rect fill="#ebedf0" height="12" stroke="none" width="12" x="160" y="20" /><rect fill="#c6e48b" height="12" stroke="none" width="12" x="160" y="36" /><rect fill="#ebedf0" height="12" stroke="none" width="12" x="160" y="52" /><rect fill="#ebedf0" height="12" stroke="none" width="12" x="160" y="68" /><rect fill="#7bc96f" height="12" stroke="none" width="12" x="160" y="84" /><rect fill="#ebedf0" height="12" stroke="none" width="12" x="160" y="100" /><rect fill="#239a3b" height="12" stroke="none" width="12" x="160" y="116" /><rect fill="#ebedf0" height="12" stroke="none" width="12" x="176" y="20" /><rect fill="#ebedf0" height="12" stroke="none" width="12" x="176" y="36" /><rect fill="#c6e48b" height="12" stroke="none" width="12" x="176" y="52" /><rect fill="#ebedf0" height="12" stroke="none" width="12" x="176" y="68" /><rect fill="#7bc96f" height="12" stroke="none" width="12" x="176" y="84" /><rect fill="#ebedf0" height="12" stroke="none" width="12" x="176" y="100" /><rect fill="#ebedf0" height="12" stroke="none" width="12" x="176" y="116" /><rect fill="#7bc96f" height="12" stroke="none" width="12" x="192" y="20" /><rect fill="#ebedf0" height="12" stroke="none" width="12" x="192" y="36" /><rect fill="#ebedf0" height="12" stroke="none" width="12" x="192" y="52" /><rect fill="#ebedf0" height="12" stroke="none" width="12" x="192" y="68" /><rect fill="#7bc96f" height="12" stroke="none" width="12" x="192" y="84" /><rect fill="#ebedf0" height="12" stroke="none" width="12" x="192" y="100" /><rect fill="#ebedf0" height="12" stroke="none" width="12" x="192" y="116" /><rect fill="#c6e48b" height="12" stroke="none" width="12" x="208" y="20" /><rect fill="#ebedf0" height="12" stroke="none" width="12" x="208" y="36" /><rect fill="#c6e48b" height="12" stroke="none" width="12" x="208" y="52" /><rect fill="#ebedf0" height="12" stroke="none" width="12" x="208" y="68" /><rect fill="#239a3b" height="12" stroke="none" width="12" x="208" y="84" /><rect fill="#ebedf0" height="12" stroke="none" width="12" x="208" y="100" /><rect fill="#ebedf0" height="12" stroke="none" width="12" x="208" y="116" /><rect fill="#239a3b" height="12" stroke="none" width="12" x="224" y="20" /><rect fill="#ebedf0" height="12" stroke="none" width="12" x="224" y="36" /><rect fill="#ebedf0" height="12" stroke="none" width="12" x="224" y="52" /><rect fill="#ebedf0" height="12" stroke="none" width="12" x="224" y="68" /><rect fill="#ebedf0" height="12" stroke="none" width="12" x="224" y="84" /><rect fill="#ebedf0" height="12" stroke="none" width="12" x="224" y="100" /><rect fill="#ebedf0" height="12" stroke="none" width="12" x="224" y="116" /><rect fill="#ebedf0" height="12" stroke="none" width="12" x="240" y="20" /><rect fill="#ebedf0" height="12" stroke="none" width="12" x="240" y="36" /><rect fill="#ebedf0" height="12" stroke="none" width="12" x="240" y="52" /><rect fill="#ebedf0" height="12" stroke="none" width="12" x="240" y="68" /><rect fill="#ebedf0" height="12" stroke="none" width="12" x="240" y="84" /><rect fill="#ebedf0" height="12" stroke="none" width="12" x="240" y="100" /><rect fill="#ebedf0" height="12" stroke="none" width="12" x="240" y="116" /><rect fill="#ebedf0" height="12" stroke="none" width="12" x="256" y="20" /><rect fill="#ebedf0" height="12" stroke="none" width="12" x="256" y="36" /><rect fill="#ebedf0" height="12" stroke="none" width="12" x="256" y="52" /><rect fill="#ebedf0" height="12" stroke="none" width="12" x="256" y="68" /><rect fill="#ebedf0" height="12" stroke="none" width="12" x="256" y="84" /><rect fill="#ebedf0" height="12" stroke="none" width="12" x="256" y="100" /><rect fill="#ebedf0" height="12" stroke="none" width="12" x="256" y="116" /><rect fill="#239a3b" height="12" stroke="none" width="12" x="272" y="20" /><rect fill="#ebedf0" height="12" stroke="none" width="12" x="272" y="36" /><rect fill="#ebedf0" height="12" stroke="none" width="12" x="272" y="52" /><rect fill="#c6e48b" height="12" stroke="none" width="12" x="272" y="68" /><rect fill="#ebedf0" height="12" stroke="none" width="12" x="272" y="84" /><rect fill="#7bc96f" height="12" stroke="none" width="12" x="272" y="100" /><rect fill="#ebedf0" height="12" stroke="none" width="12" x="272" y="116" /><rect fill="#ebedf0" height="12" stroke="none" width="12" x="288" y="20" /><rect fill="#ebedf0" height="12" stroke="none" width="12" x="288" y="36" /><rect fill="#ebedf0" height="12" stroke="none" width="12" x="288" y="52" /><rect fill="#ebedf0" height="12" stroke="none" width="12" x="288" y="68" /><rect fill="#ebedf0" height="12" stroke="none" width="12" x="288" y="84" /><rect fill="#7bc96f" height="12" stroke="none" width="12" x="288" y="100" /><rect fill="#ebedf0" height="12" stroke="none" width="12" x="288" y="116" /><rect fill="#ebedf0" height="12" stroke="none" width="12" x="304" y="20" /><rect fill="#ebedf0" height="12" stroke="none" width="12" x="304" y="36" /><rect fill="#ebedf0" height="12" stroke="none" width="12" x="304" y="52" /><rect fill="#7bc96f" height="12" stroke="none" width="12" x="304" y="68" /><rect fill="#7bc96f" height="12" stroke="none" width="12" x="304" y="84" /><rect fill="#196127" height="12" stroke="none" width="12" x="304" y="100" /><rect fill="#ebedf0" height="12" stroke="none" width="12" x="304" y="116" /><rect fill="#239a3b" height="12" stroke="none" width="12" x="320" y="20" /><rect fill="#ebedf0" height="12" stroke="none" width="12" x="320" y="36" /><rect fill="#ebedf0" height="12" stroke="none" width="12" x="320" y="52" /><rect fill="#ebedf0" height="12" stroke="none" width="12" x="320" y="68" /><rect fill="#c6e48b" height="12" stroke="none" width="12" x="320" y="84" /><rect fill="#7bc96f" height="12" stroke="none" width="12" x="320" y="100" /><rect fill="#c6e48b" height="12" stroke="none" width="12" x="320" y="116" /><rect fill="#7bc96f" height="12" stroke="none" width="12" x="336" y="20" /><rect fill="#ebedf0" height="12" stroke="none" width="12" x="336" y="36" /><rect fill="#ebedf0" height="12" stroke="none" width="12" x="336" y="52" /><rect fill="#ebedf0" height="12" stroke="none" width="12" x="336" y="68" /><rect fill="#7bc96f" height="12" stroke="none" width="12" x="336" y="84" /><rect fill="#7bc96f" height="12" stroke="none" width="12" x="336" y="100" /><rect fill="#ebedf0" height="12" stroke="none" width="12" x="336" y="116" /><rect fill="#7bc96f" height="12" stroke="none" width="12" x="352" y="20" /><rect fill="#ebedf0" height="12" stroke="none" width="12" x="352" y="36" /><rect fill="#ebedf0" height="12" stroke="none" width="12" x="352" y="52" /><rect fill="#ebedf0" height="12" stroke="none" width="12" x="352" y="68" /><rect fill="#ebedf0" height="12" stroke="none" width="12" x="352" y="84" /><rect fill="#ebedf0" height="12" stroke="none" width="12" x="352" y="100" /><rect fill="#ebedf0" height="12" stroke="none" width="12" x="352" y="116" /><rect fill="#7bc96f" height="12" stroke="none" width="12" x="368" y="20" /><rect fill="#c6e48b" height="12" stroke="none" width="12" x="368" y="36" /><rect fill="#ebedf0" height="12" stroke="none" width="12" x="368" y="52" /><rect fill="#ebedf0" height="12" stroke="none" width="12" x="368" y="68" /><rect fill="#ebedf0" height="12" stroke="none" width="12" x="368" y="84" /><rect fill="#ebedf0" height="12" stroke="none" width="12" x="368" y="100" /><rect fill="#7bc96f" height="12" stroke="none" width="12" x="368" y="116" /><rect fill="#ebedf0" height="12" stroke="none" width="12" x="384" y="20" /><rect fill="#ebedf0" height="12" stroke="none" width="12" x="384" y="36" /><rect fill="#ebedf0" height="12" stroke="none" width="12" x="384" y="52" /><rect fill="#ebedf0" height="12" stroke="none" width="12" x="384" y="68" /><rect fill="#ebedf0" height="12" stroke="none" width="12" x="384" y="84" /><rect fill="#ebedf0" height="12" stroke="none" width="12" x="384" y="100" /><rect fill="#ebedf0" height="12" stroke="none" width="12" x="384" y="116" /><rect fill="#ebedf0" height="12" stroke="none" width="12" x="400" y="20" /><rect fill="#ebedf0" height="12" stroke="none" width="12" x="400" y="36" /><rect fill="#ebedf0" height="12" stroke="none" width="12" x="400" y="52" /><rect fill="#ebedf0" height="12" stroke="none" width="12" x="400" y="68" /><rect fill="#ebedf0" height="12" stroke="none" width="12" x="400" y="84" /><rect fill="#ebedf0" height="12" stroke="none" width="12" x="400" y="100" /><rect fill="#ebedf0" height="12" stroke="none" width="12" x="400" y="116" /><rect fill="#ebedf0" height="12" stroke="none" width="12" x="416" y="20" /><rect fill="#ebedf0" height="12" stroke="none" width="12" x="416" y="36" /><rect fill="#ebedf0" height="12" stroke="none" width="12" x="416" y="52" /><rect fill="#ebedf0" height="12" stroke="none" width="12" x="416" y="68" /><rect fill="#ebedf0" height="12" stroke="none" width="12" x="416" y="84" /><rect fill="#ebedf0" height="12" stroke="none" width="12" x="416" y="100" /><rect fill="#ebedf0" height="12" stroke="none" width="12" x="416" y="116" /><rect fill="#ebedf0" height="12" stroke="none" width="12" x="432" y="20" /><rect fill="#ebedf0" height="12" stroke="none" width="12" x="432" y="36" /><rect fill="#ebedf0" height="12" stroke="none" width="12" x="432" y="52" /><rect fill="#ebedf0" height="12" stroke="none" width="12" x="432" y="68" /><rect fill="#ebedf0" height="12" stroke="none" width="12" x="432" y="84" /><rect fill="#ebedf0" height="12" stroke="none" width="12" x="432" y="100" /><rect fill="#ebedf0" height="12" stroke="none" width="12" x="432" y="116" /><rect fill="#ebedf0" height="12" stroke="none" width="12" x="448" y="20" /><rect fill="#c6e48b" height="12" stroke="none" width="12" x="448" y="36" /><rect fill="#ebedf0" height="12" stroke="none" width="12" x="448" y="52" /><rect fill="#ebedf0" height="12" stroke="none" width="12" x="448" y="68" /><rect fill="#ebedf0" height="12" stroke="none" width="12" x="448" y="84" /><rect fill="#ebedf0" height="12" stroke="none" width="12" x="448" y="100" /><rect fill="#ebedf0" height="12" stroke="none" width="12" x="448" y="116" /><rect fill="#ebedf0" height="12" stroke="none" width="12" x="464" y="20" /><rect fill="#ebedf0" height="12" stroke="none" width="12" x="464" y="36" /><rect fill="#ebedf0" height="12" stroke="none" width="12" x="464" y="52" /><rect fill="#ebedf0" height="12" stroke="none" width="12" x="464" y="68" /><rect fill="#ebedf0" height="12" stroke="none" width="12" x="464" y="84" /><rect fill="#ebedf0" height="12" stroke="none" width="12" x="464" y="100" /><rect fill="#ebedf0" height="12" stroke="none" width="12" x="464" y="116" /><rect fill="#ebedf0" height="12" stroke="none" width="12" x="480" y="20" /><rect fill="#ebedf0" height="12" stroke="none" width="12" x="480" y="36" /><rect fill="#ebedf0" height="12" stroke="none" width="12" x="480" y="52" /><rect fill="#ebedf0" height="12" stroke="none" width="12" x="480" y="68" /><rect fill="#ebedf0" height="12" stroke="none" width="12" x="480" y="84" /><rect fill="#ebedf0" height="12" stroke="none" width="12" x="480" y="100" /><rect fill="#ebedf0" height="12" stroke="none" width="12" x="480" y="116" /><rect fill="#ebedf0" height="12" stroke="none" width="12" x="496" y="20" /><rect fill="#ebedf0" height="12" stroke="none" width="12" x="496" y="36" /><rect fill="#ebedf0" height="12" stroke="none" width="12" x="496" y="52" /><rect fill="#ebedf0" height="12" stroke="none" width="12" x="496" y="68" /><rect fill="#ebedf0" height="12" stroke="none" width="12" x="496" y="84" /><rect fill="#ebedf0" height="12" stroke="none" width="12" x="496" y="100" /><rect fill="#ebedf0" height="12" stroke="none" width="12" x="496" y="116" /><rect fill="#c6e48b" height="12" stroke="none" width="12" x="512" y="20" /><rect fill="#ebedf0" height="12" stroke="none" width="12" x="512" y="36" /><rect fill="#ebedf0" height="12" stroke="none" width="12" x="512" y="52" /><rect fill="#ebedf0" height="12" stroke="none" width="12" x="512" y="68" /><rect fill="#ebedf0" height="12" stroke="none" width="12" x="512" y="84" /><rect fill="#ebedf0" height="12" stroke="none" width="12" x="512" y="100" /><rect fill="#ebedf0" height="12" stroke="none" width="12" x="512" y="116" /><rect fill="#ebedf0" height="12" stroke="none" width="12" x="528" y="20" /><rect fill="#ebedf0" height="12" stroke="none" width="12" x="528" y="36" /><rect fill="#ebedf0" height="12" stroke="none" width="12" x="528" y="52" /><rect fill="#ebedf0" height="12" stroke="none" width="12" x="528" y="68" /><rect fill="#ebedf0" height="12" stroke="none" width="12" x="528" y="84" /><rect fill="#ebedf0" height="12" stroke="none" width="12" x="528" y="100" /><rect fill="#ebedf0" height="12" stroke="none" width="12" x="528" y="116" /><rect fill="#ebedf0" height="12" stroke="none" width="12" x="544" y="20" /><rect fill="#ebedf0" height="12" stroke="none" width="12" x="544" y="36" /><rect fill="#ebedf0" height="12" stroke="none" width="12" x="544" y="52" /><rect fill="#ebedf0" height="12" stroke="none" width="12" x="544" y="68" /><rect fill="#ebedf0" height="12" stroke="none" width="12" x="544" y="84" /><rect fill="#ebedf0" height="12" stroke="none" width="12" x="544" y="100" /><rect fill="#ebedf0" height="12" stroke="none" width="12" x="544" y="116" /><rect fill="#ebedf0" height="12" stroke="none" width="12" x="560" y="20" /><rect fill="#ebedf0" height="12" stroke="none" width="12" x="560" y="36" /><rect fill="#ebedf0" height="12" stroke="none" width="12" x="560" y="52" /><rect fill="#ebedf0" height="12" stroke="none" width="12" x="560" y="68" /><rect fill="#ebedf0" height="12" stroke="none" width="12" x="560" y="84" /><rect fill="#ebedf0" height="12" stroke="none" width="12" x="560" y="100" /><rect fill="#ebedf0" height="12" stroke="none" width="12" x="560" y="116" /><rect fill="#ebedf0" height="12" stroke="none" width="12" x="576" y="20" /><rect fill="#ebedf0" height="12" stroke="none" width="12" x="576" y="36" /><rect fill="#ebedf0" height="12" stroke="none" width="12" x="576" y="52" /><rect fill="#ebedf0" height="12" stroke="none" width="12" x="576" y="68" /><rect fill="#ebedf0" height="12" stroke="none" width="12" x="576" y="84" /><rect fill="#ebedf0" height="12" stroke="none" width="12" x="576" y="100" /><rect fill="#ebedf0" height="12" stroke="none" width="12" x="576" y="116" /><rect fill="#ebedf0" height="12" stroke="none" width="12" x="592" y="20" /><rect fill="#ebedf0" height="12" stroke="none" width="12" x="592" y="36" /><rect fill="#ebedf0" height="12" stroke="none" width="12" x="592" y="52" /><rect fill="#ebedf0" height="12" stroke="none" width="12" x="592" y="68" /><rect fill="#ebedf0" height="12" stroke="none" width="12" x="592" y="84" /><rect fill="#ebedf0" height="12" stroke="none" width="12" x="592" y="100" /><rect fill="#ebedf0" height="12" stroke="none" width="12" x="592" y="116" /><rect fill="#c6e48b" height="12" stroke="none" width="12" x="608" y="20" /><rect fill="#ebedf0" height="12" stroke="none" width="12" x="608" y="36" /><rect fill="#ebedf0" height="12" stroke="none" width="12" x="608" y="52" /><rect fill="#ebedf0" height="12" stroke="none" width="12" x="608" y="68" /><rect fill="#ebedf0" height="12" stroke="none" width="12" x="608" y="84" /><rect fill="#ebedf0" height="12" stroke="none" width="12" x="608" y="100" /><rect fill="#ebedf0" height="12" stroke="none" width="12" x="608" y="116" /><rect fill="#ebedf0" height="12" stroke="none" width="12" x="624" y="20" /><rect fill="#ebedf0" height="12" stroke="none" width="12" x="624" y="36" /><rect fill="#ebedf0" height="12" stroke="none" width="12" x="624" y="52" /><rect fill="#ebedf0" height="12" stroke="none" width="12" x="624" y="68" /><rect fill="#ebedf0" height="12" stroke="none" width="12" x="624" y="84" /><rect fill="#ebedf0" height="12" stroke="none" width="12" x="624" y="100" /><rect fill="#ebedf0" height="12" stroke="none" width="12" x="624" y="116" /><rect fill="#ebedf0" height="12" stroke="none" width="12" x="640" y="20" /><rect fill="#ebedf0" height="12" stroke="none" width="12" x="640" y="36" /><rect fill="#ebedf0" height="12" stroke="none" width="12" x="640" y="52" /><rect fill="#ebedf0" height="12" stroke="none" width="12" x="640" y="68" /><rect fill="#ebedf0" height="12" stroke="none" width="12" x="640" y="84" /><rect fill="#ebedf0" height="12" stroke="none" width="12" x="640" y="100" /><rect fill="#ebedf0" height="12" stroke="none" width="12" x="640" y="116" /><rect fill="#c6e48b" height="12" stroke="none" width="12" x="656" y="20" /><rect fill="#ebedf0" height="12" stroke="none" width="12" x="656" y="36" /><rect fill="#ebedf0" height="12" stroke="none" width="12" x="656" y="52" /><rect fill="#ebedf0" height="12" stroke="none" width="12" x="656" y="68" /><rect fill="#ebedf0" height="12" stroke="none" width="12" x="656" y="84" /><rect fill="#ebedf0" height="12" stroke="none" width="12" x="656" y="100" /><rect fill="#ebedf0" height="12" stroke="none" width="12" x="656" y="116" /><rect fill="#c6e48b" height="12" stroke="none" width="12" x="672" y="20" /><rect fill="#ebedf0" height="12" stroke="none" width="12" x="672" y="36" /><rect fill="#ebedf0" height="12" stroke="none" width="12" x="672" y="52" /><rect fill="#ebedf0" height="12" stroke="none" width="12" x="672" y="68" /><rect fill="#ebedf0" height="12" stroke="none" width="12" x="672" y="84" /><rect fill="#ebedf0" height="12" stroke="none" width="12" x="672" y="100" /><rect fill="#ebedf0" height="12" stroke="none" width="12" x="672" y="116" /><rect fill="#ebedf0" height="12" stroke="none" width="12" x="688" y="20" /><rect fill="#ebedf0" height="12" stroke="none" width="12" x="688" y="36" /><rect fill="#ebedf0" height="12" stroke="none" width="12" x="688" y="52" /><rect fill="#ebedf0" height="12" stroke="none" width="12" x="688" y="68" /><rect fill="#ebedf0" height="12" stroke="none" width="12" x="688" y="84" /><rect fill="#ebedf0" height="12" stroke="none" width="12" x="688" y="100" /><rect fill="#ebedf0" height="12" stroke="none" width="12" x="688" y="116" /><rect fill="#7bc96f" height="12" stroke="none" width="12" x="704" y="20" /><rect fill="#ebedf0" height="12" stroke="none" width="12" x="704" y="36" /><rect fill="#ebedf0" height="12" stroke="none" width="12" x="704" y="52" /><rect fill="#ebedf0" height="12" stroke="none" width="12" x="704" y="68" /><rect fill="#ebedf0" height="12" stroke="none" width="12" x="704" y="84" /><rect fill="#ebedf0" height="12" stroke="none" width="12" x="704" y="100" /><rect fill="#ebedf0" height="12" stroke="none" width="12" x="704" y="116" /><rect fill="#ebedf0" height="12" stroke="none" width="12" x="720" y="20" /><rect fill="#c6e48b" height="12" stroke="none" width="12" x="720" y="36" /><rect fill="#ebedf0" height="12" stroke="none" width="12" x="720" y="52" /><rect fill="#ebedf0" height="12" stroke="none" width="12" x="720" y="68" /><rect fill="#ebedf0" height="12" stroke="none" width="12" x="720" y="84" /><rect fill="#ebedf0" height="12" stroke="none" width="12" x="720" y="100" /><rect fill="#ebedf0" height="12" stroke="none" width="12" x="720" y="116" /><rect fill="#ebedf0" height="12" stroke="none" width="12" x="736" y="20" /><rect fill="#ebedf0" height="12" stroke="none" width="12" x="736" y="36" /><rect fill="#ebedf0" height="12" stroke="none" width="12" x="736" y="52" /><rect fill="#ebedf0" height="12" stroke="none" width="12" x="736" y="68" /><rect fill="#ebedf0" height="12" stroke="none" width="12" x="736" y="84" /><rect fill="#ebedf0" height="12" stroke="none" width="12" x="736" y="100" /><rect fill="#ebedf0" height="12" stroke="none" width="12" x="736" y="116" /><rect fill="#c6e48b" height="12" stroke="none" width="12" x="752" y="20" /><rect fill="#ebedf0" height="12" stroke="none" width="12" x="752" y="36" /><rect fill="#ebedf0" height="12" stroke="none" width="12" x="752" y="52" /><rect fill="#ebedf0" height="12" stroke="none" width="12" x="752" y="68" /><rect fill="#ebedf0" height="12" stroke="none" width="12" x="752" y="84" /><rect fill="#ebedf0" height="12" stroke="none" width="12" x="752" y="100" /><rect fill="#ebedf0" height="12" stroke="none" width="12" x="752" y="116" /><rect fill="#c6e48b" height="12" stroke="none" width="12" x="768" y="20" /><rect fill="#ebedf0" height="12" stroke="none" width="12" x="768" y="36" /><rect fill="#ebedf0" height="12" stroke="none" width="12" x="768" y="52" /><rect fill="#ebedf0" height="12" stroke="none" width="12" x="768" y="68" /><rect fill="#ebedf0" height="12" stroke="none" width="12" x="768" y="84" /><rect fill="#ebedf0" height="12" stroke="none" width="12" x="768" y="100" /><rect fill="#c6e48b" height="12" stroke="none" width="12" x="768" y="116" /><rect fill="#ebedf0" height="12" stroke="none" width="12" x="784" y="20" /><rect fill="#ebedf0" height="12" stroke="none" width="12" x="784" y="36" /><rect fill="#ebedf0" height="12" stroke="none" width="12" x="784" y="52" /><rect fill="#ebedf0" height="12" stroke="none" width="12" x="784" y="68" /><rect fill="#ebedf0" height="12" stroke="none" width="12" x="784" y="84" /><rect fill="#ebedf0" height="12" stroke="none" width="12" x="784" y="100" /><rect fill="#ebedf0" height="12" stroke="none" width="12" x="784" y="116" /><rect fill="#c6e48b" height="12" stroke="none" width="12" x="800" y="20" /><rect fill="#ebedf0" height="12" stroke="none" width="12" x="800" y="36" /><rect fill="#ebedf0" height="12" stroke="none" width="12" x="800" y="52" /><rect fill="#ebedf0" height="12" stroke="none" width="12" x="800" y="68" /><rect fill="#ebedf0" height="12" stroke="none" width="12" x="800" y="84" /><rect fill="#ebedf0" height="12" stroke="none" width="12" x="800" y="100" /><rect fill="#7bc96f" height="12" stroke="none" width="12" x="800" y="116" /><rect fill="#ebedf0" height="12" stroke="none" width="12" x="816" y="20" /><rect fill="#ebedf0" height="12" stroke="none" width="12" x="816" y="36" /><rect fill="#ebedf0" height="12" stroke="none" width="12" x="816" y="52" /><rect fill="#ebedf0" height="12" stroke="none" width="12" x="816" y="68" /><rect fill="#ebedf0" height="12" stroke="none" width="12" x="816" y="84" /><rect fill="#ebedf0" height="12" stroke="none" width="12" x="816" y="100" /><rect fill="#ebedf0" height="12" stroke="none" width="12" x="816" y="116" /><rect fill="#ebedf0" height="12" stroke="none" width="12" x="832" y="20" /><rect fill="#ebedf0" height="12" stroke="none" width="12" x="832" y="36" /><rect fill="#ebedf0" height="12" stroke="none" width="12" x="832" y="52" /></svg>