<?xml version="1.0" encoding="utf-8" ?>
<svg baseProfile="tiny" height="112" version="1.2" width="848" xmlns="http://www.w3.org/2000/svg" xmlns:ev="http://www.w3.org/2001/xml-events" xmlns:xlink="http://www.w3.org/1999/xlink"><defs /><rect fill="#ebedf0" height="12" stroke="none" width="12" x="0" y="0" /><rect fill="#ebedf0" height="12" stroke="none" width="12" x="0" y="16" /><rect fill="#ebedf0" height="12" stroke="none" width="12" x="16" y="0" /><rect fill="#c6e48b" height="12" stroke="none" width="12" x="16" y="16" /><rect fill="#c6e48b" height="12" stroke="none" width="12" x="16" y="32" /><rect fill="#c6e48b" height="12" stroke="none" width="12" x="16" y="48" /><rect fill="#7bc96f" height="12" stroke="none" width="12" x="16" y="64" /><rect fill="#7bc96f" height="12" stroke="none" width="12" x="16" y="80" /><rect fill="#ebedf0" height="12" stroke="none" width="12" x="16" y="96" /><rect fill="#ebedf0" height="12" stroke="none" width="12" x="32" y="0" /><rect fill="#c6e48b" height="12" stroke="none" width="12" x="32" y="16" /><rect fill="#ebedf0" height="12" stroke="none" width="12" x="32" y="32" /><rect fill="#ebedf0" height="12" stroke="none" width="12" x="32" y="48" /><rect fill="#ebedf0" height="12" stroke="none" width="12" x="32" y="64" /><rect fill="#ebedf0" height="12" stroke="none" width="12" x="32" y="80" /><rect fill="#ebedf0" height="12" stroke="none" width="12" x="32" y="96" /><rect fill="#c6e48b" height="12" stroke="none" width="12" x="48" y="0" /><rect fill="#ebedf0" height="12" stroke="none" width="12" x="48" y="16" /><rect fill="#ebedf0" height="12" stroke="none" width="12" x="48" y="32" /><rect fill="#ebedf0" height="12" stroke="none" width="12" x="48" y="48" /><rect fill="#c6e48b" height="12" stroke="none" width="12" x="48" y="64" /><rect fill="#ebedf0" height="12" stroke="none" width="12" x="48" y="80" /><rect fill="#ebedf0" height="12" stroke="none" width="12" x="48" y="96" /><rect fill="#c6e48b" height="12" stroke="none" width="12" x="64" y="0" /><rect fill="#ebedf0" height="12" stroke="none" width="12" x="64" y="16" /><rect fill="#c6e48b" height="12" stroke="none" width="12" x="64" y="32" /><rect fill="#c6e48b" height="12" stroke="none" width="12" x="64" y="48" /><rect fill="#c6e48b" height="12" stroke="none" width="12" x="64" y="64" /><rect fill="#ebedf0" height="12" stroke="none" width="12" x="64" y="80" /><rect fill="#ebedf0" height="12" stroke="none" width="12" x="64" y="96" /><rect fill="#ebedf0" height="12" stroke="none" width="12" x="80" y="0" /><rect fill="#c6e48b" height="12" stroke="none" width="12" x="80" y="16" /><rect fill="#ebedf0" height="12" stroke="none" width="12" x="80" y="32" /><rect fill="#ebedf0" height="12" stroke="none" width="12" x="80" y="48" /><rect fill="#ebedf0" height="12" stroke="none" width="12" x="80" y="64" /><rect fill="#ebedf0" height="12" stroke="none" width="12" x="80" y="80" /><rect fill="#ebedf0" height="12" stroke="none" width="12" x="80" y="96" /><rect fill="#ebedf0" height="12" stroke="none" width="12" x="96" y="0" /><rect fill="#c6e48b" height="12" stroke="none" width="12" x="96" y="16" /><rect fill="#ebedf0" height="12" stroke="none" width="12" x="96" y="32" /><rect fill="#ebedf0" height="12" stroke="none" width="12" x="96" y="48" /><rect fill="#ebedf0" height="12" stroke="none" width="12" x="96" y="64" /><rect fill="#ebedf0" height="12" stroke="none" width="12" x="96" y="80" /><rect fill="#ebedf0" height="12" stroke="none" width="12" x="96" y="96" /><rect fill="#ebedf0" height="12" stroke="none" width="12" x="112" y="0" /><rect fill="#ebedf0" height="12" stroke="none" width="12" x="112" y="16" /><rect fill="#ebedf0" height="12" stroke="none" width="12" x="112" y="32" /><rect fill="#c6e48b" height="12" stroke="none" width="12" x="112" y="48" /><rect fill="#ebedf0" height="12" stroke="none" width="12" x="112" y="64" /><rect fill="#ebedf0" height="12" stroke="none" width="12" x="112" y="80" /><rect fill="#ebedf0" height="12" stroke="none" width="12" x="112" y="96" /><rect fill="#ebedf0" height="12" stroke="none" width="12" x="128" y="0" /><rect fill="#c6e48b" height="12" stroke="none" width="12" x="128" y="16" /><rect fill="#ebedf0" height="12" stroke="none" width="12" x="128" y="32" /><rect fill="#ebedf0" height="12" stroke="none" width="12" x="128" y="48" /><rect fill="#ebedf0" height="12" stroke="none" width="12" x="128" y="64" /><rect fill="#ebedf0" height="12" stroke="none" width="12" x="128" y="80" /><rect fill="#ebedf0" height="12" stroke="none" width="12" x="128" y="96" /><rect fill="#ebedf0" height="12" stroke="none" width="12" x="144" y="0" /><rect fill="#ebedf0" height="12" stroke="none" width="12" x="144" y="16" /><rect fill="#ebedf0" height="12" stroke="none" width="12" x="144" y="32" /><rect fill="#c6e48b" height="12" stroke="none" width="12" x="144" y="48" /><rect fill="#ebedf0" height="12" stroke="none" width="12" x="144" y="64" /><rect fill="#ebedf0" height="12" stroke="none" width="12" x="144" y="80" /><rect fill="#ebedf0" height="12" stroke="none" width="12" x="144" y="96" /><rect fill="#c6e48b" height="12" stroke="none" width="12" x="160" y="0" /><rect fill="#7bc96f" height="12" stroke="none" width="12" x="160" y="16" /><rect fill="#ebedf0" height="12" stroke="none" width="12" x="160" y="32" /><rect fill="#ebedf0" height="12" stroke="none" width="12" x="160" y="48" /><rect fill="#c6e48b" height="12" stroke="none" width="12" x="160" y="64" /><rect fill="#ebedf0" height="12" stroke="none" width="12" x="160" y="80" /><rect fill="#ebedf0" height="12" stroke="none" width="12" x="160" y="96" /><rect fill="#ebedf0" height="12" stroke="none" width="12" x="176" y="0" /><rect fill="#ebedf0" height="12" stroke="none" width="12" x="176" y="16" /><rect fill="#ebedf0" height="12" stroke="none" width="12" x="176" y="32" /><rect fill="#ebedf0" height="12" stroke="none" width="12" x="176" y="48" /><rect fill="#ebedf0" height="12" stroke="none" width="12" x="176" y="64" /><rect fill="#ebedf0" height="12" stroke="none" width="12" x="176" y="80" /><rect fill="#ebedf0" height="12" stroke="none" width="12" x="176" y="96" /><rect fill="#ebedf0" height="12" stroke="none" width="12" x="192" y="0" /><rect fill="#ebedf0" height="12" stroke="none" width="12" x="192" y="16" /><rect fill="#ebedf0" height="12" stroke="none" width="12" x="192" y="32" /><rect fill="#ebedf0" height="12" stroke="none" width="12" x="192" y="48" /><rect fill="#ebedf0" height="12" stroke="none" width="12" x="192" y="64" /><rect fill="#ebedf0" height="12" stroke="none" width="12" x="192" y="80" /><rect fill="#ebedf0" height="12" stroke="none" width="12" x="192" y="96" /><rect fill="#ebedf0" height="12" stroke="none" width="12" x="208" y="0" /><rect fill="#ebedf0" height="12" stroke="none" width="12" x="208" y="16" /><rect fill="#ebedf0" height="12" stroke="none" width="12" x="208" y="32" /><rect fill="#ebedf0" height="12" stroke="none" width="12" x="208" y="48" /><rect fill="#ebedf0" height="12" stroke="none" width="12" x="208" y="64" /><rect fill="#ebedf0" height="12" stroke="none" width="12" x="208" y="80" /><rect fill="#ebedf0" height="12" stroke="none" width="12" x="208" y="96" /><rect fill="#ebedf0" height="12" stroke="none" width="12" x="224" y="0" /><rect fill="#ebedf0" height="12" stroke="none" width="12" x="224" y="16" /><rect fill="#ebedf0" height="12" stroke="none" width="12" x="224" y="32" /><rect fill="#ebedf0" height="12" stroke="none" width="12" x="224" y="48" /><rect fill="#ebedf0" height="12" stroke="none" width="12" x="224" y="64" /><rect fill="#ebedf0" height="12" stroke="none" width="12" x="224" y="80" /><rect fill="#ebedf0" height="12" stroke="none" width="12" x="224" y="96" /><rect fill="#ebedf0" height="12" stroke="none" width="12" x="240" y="0" /><rect fill="#ebedf0" height="12" stroke="none" width="12" x="240" y="16" /><rect fill="#ebedf0" height="12" stroke="none" width="12" x="240" y="32" /><rect fill="#ebedf0" height="12" stroke="none" width="12" x="240" y="48" /><rect fill="#ebedf0" height="12" stroke="none" width="12" x="240" y="64" /><rect fill="#ebedf0" height="12" stroke="none" width="12" x="240" y="80" /><rect fill="#ebedf0" height="12" stroke="none" width="12" x="240" y="96" /><rect fill="#ebedf0" height="12" stroke="none" width="12" x="256" y="0" /><rect fill="#ebedf0" height="12" stroke="none" width="12" x="256" y="16" /><rect fill="#ebedf0" height="12" stroke="none" width="12" x="256" y="32" /><rect fill="#ebedf0" height="12" stroke="none" width="12" x="256" y="48" /><rect fill="#c6e48b" height="12" stroke="none" width="12" x="256" y="64" /><rect fill="#ebedf0" height="12" stroke="none" width="12" x="256" y="80" /><rect fill="#c6e48b" height="12" stroke="none" width="12" x="256" y="96" /><rect fill="#ebedf0" height="12" stroke="none" width="12" x="272" y="0" /><rect fill="#ebedf0" height="12" stroke="none" width="12" x="272" y="16" /><rect fill="#ebedf0" height="12" stroke="none" width="12" x="272" y="32" /><rect fill="#ebedf0" height="12" stroke="none" width="12" x="272" y="48" /><rect fill="#ebedf0" height="12" stroke="none" width="12" x="272" y="64" /><rect fill="#ebedf0" height="12" stroke="none" width="12" x="272" y="80" /><rect fill="#c6e48b" height="12" stroke="none" width="12" x="272" y="96" /><rect fill="#ebedf0" height="12" stroke="none" width="12" x="288" y="0" /><rect fill="#c6e48b" height="12" stroke="none" width="12" x="288" y="16" /><rect fill="#c6e48b" height="12" stroke="none" width="12" x="288" y="32" /><rect fill="#c6e48b" height="12" stroke="none" width="12" x="288" y="48" /><rect fill="#c6e48b" height="12" stroke="none" width="12" x="288" y="64" /><rect fill="#ebedf0" height="12" stroke="none" width="12" x="288" y="80" /><rect fill="#c6e48b" height="12" stroke="none" width="12" x="288" y="96" /><rect fill="#ebedf0" height="12" stroke="none" width="12" x="304" y="0" /><rect fill="#ebedf0" height="12" stroke="none" width="12" x="304" y="16" /><rect fill="#ebedf0" height="12" stroke="none" width="12" x="304" y="32" /><rect fill="#c6e48b" height="12" stroke="none" width="12" x="304" y="48" /><rect fill="#c6e48b" height="12" stroke="none" width="12" x="304" y="64" /><rect fill="#196127" height="12" stroke="none" width="12" x="304" y="80" /><rect fill="#7bc96f" height="12" stroke="none" width="12" x="304" y="96" /><rect fill="#c6e48b" height="12" stroke="none" width="12" x="320" y="0" /><rect fill="#c6e48b" height="12" stroke="none" width="12" x="320" y="16" /><rect fill="#c6e48b" height="12" stroke="none" width="12" x="320" y="32" /><rect fill="#ebedf0" height="12" stroke="none" width="12" x="320" y="48" /><rect fill="#ebedf0" height="12" stroke="none" width="12" x="320" y="64" /><rect fill="#ebedf0" height="12" stroke="none" width="12" x="320" y="80" /><rect fill="#ebedf0" height="12" stroke="none" width="12" x="320" y="96" /><rect fill="#ebedf0" height="12" stroke="none" width="12" x="336" y="0" /><rect fill="#ebedf0" height="12" stroke="none" width="12" x="336" y="16" /><rect fill="#ebedf0" height="12" stroke="none" width="12" x="336" y="32" /><rect fill="#ebedf0" height="12" stroke="none" width="12" x="336" y="48" /><rect fill="#ebedf0" height="12" stroke="none" width="12" x="336" y="64" /><rect fill="#ebedf0" height="12" stroke="none" width="12" x="336" y="80" /><rect fill="#ebedf0" height="12" stroke="none" width="12" x="336" y="96" /><rect fill="#ebedf0" height="12" stroke="none" width="12" x="352" y="0" /><rect fill="#ebedf0" height="12" stroke="none" width="12" x="352" y="16" /><rect fill="#ebedf0" height="12" stroke="none" width="12" x="352" y="32" /><rect fill="#ebedf0" height="12" stroke="none" width="12" x="352" y="48" /><rect fill="#ebedf0" height="12" stroke="none" width="12" x="352" y="64" /><rect fill="#ebedf0" height="12" stroke="none" width="12" x="352" y="80" /><rect fill="#c6e48b" height="12" stroke="none" width="12" x="352" y="96" /><rect fill="#ebedf0" height="12" stroke="none" width="12" x="368" y="0" /><rect fill="#ebedf0" height="12" stroke="none" width="12" x="368" y="16" /><rect fill="#c6e48b" height="12" stroke="none" width="12" x="368" y="32" /><rect fill="#ebedf0" height="12" stroke="none" width="12" x="368" y="48" /><rect fill="#ebedf0" height="12" stroke="none" width="12" x="368" y="64" /><rect fill="#ebedf0" height="12" stroke="none" width="12" x="368" y="80" /><rect fill="#ebedf0" height="12" stroke="none" width="12" x="368" y="96" /><rect fill="#ebedf0" height="12" stroke="none" width="12" x="384" y="0" /><rect fill="#ebedf0" height="12" stroke="none" width="12" x="384" y="16" /><rect fill="#ebedf0" height="12" stroke="none" width="12" x="384" y="32" /><rect fill="#ebedf0" height="12" stroke="none" width="12" x="384" y="48" /><rect fill="#ebedf0" height="12" stroke="none" width="12" x="384" y="64" /><rect fill="#ebedf0" height="12" stroke="none" width="12" x="384" y="80" /><rect fill="#ebedf0" height="12" stroke="none" width="12" x="384" y="96" /><rect fill="#ebedf0" height="12" stroke="none" width="12" x="400" y="0" /><rect fill="#ebedf0" height="12" stroke="none" width="12" x="400" y="16" /><rect fill="#ebedf0" height="12" stroke="none" width="12" x="400" y="32" /><rect fill="#ebedf0" height="12" stroke="none" width="12" x="400" y="48" /><rect fill="#ebedf0" height="12" stroke="none" width="12" x="400" y="64" /><rect fill="#c6e48b" height="12" stroke="none" width="12" x="400" y="80" /><rect fill="#ebedf0" height="12" stroke="none" width="12" x="400" y="96" /><rect fill="#c6e48b" height="12" stroke="none" width="12" x="416" y="0" /><rect fill="#ebedf0" height="12" stroke="none" width="12" x="416" y="16" /><rect fill="#ebedf0" height="12" stroke="none" width="12" x="416" y="32" /><rect fill="#ebedf0" height="12" stroke="none" width="12" x="416" y="48" /><rect fill="#ebedf0" height="12" stroke="none" width="12" x="416" y="64" /><rect fill="#ebedf0" height="12" stroke="none" width="12" x="416" y="80" /><rect fill="#c6e48b" height="12" stroke="none" width="12" x="416" y="96" /><rect fill="#c6e48b" height="12" stroke="none" width="12" x="432" y="0" /><rect fill="#7bc96f" height="12" stroke="none" width="12" x="432" y="16" /><rect fill="#c6e48b" height="12" stroke="none" width="12" x="432" y="32" /><rect fill="#ebedf0" height="12" stroke="none" width="12" x="432" y="48" /><rect fill="#ebedf0" height="12" stroke="none" width="12" x="432" y="64" /><rect fill="#ebedf0" height="12" stroke="none" width="12" x="432" y="80" /><rect fill="#c6e48b" height="12" stroke="none" width="12" x="432" y="96" /><rect fill="#ebedf0" height="12" stroke="none" width="12" x="448" y="0" /><rect fill="#ebedf0" height="12" stroke="none" width="12" x="448" y="16" /><rect fill="#ebedf0" height="12" stroke="none" width="12" x="448" y="32" /><rect fill="#ebedf0" height="12" stroke="none" width="12" x="448" y="48" /><rect fill="#ebedf0" height="12" stroke="none" width="12" x="448" y="64" /><rect fill="#ebedf0" height="12" stroke="none" width="12" x="448" y="80" /><rect fill="#7bc96f" height="12" stroke="none" width="12" x="448" y="96" /><rect fill="#c6e48b" height="12" stroke="none" width="12" x="464" y="0" /><rect fill="#ebedf0" height="12" stroke="none" width="12" x="464" y="16" /><rect fill="#c6e48b" height="12" stroke="none" width="12" x="464" y="32" /><rect fill="#ebedf0" height="12" stroke="none" width="12" x="464" y="48" /><rect fill="#ebedf0" height="12" stroke="none" width="12" x="464" y="64" /><rect fill="#c6e48b" height="12" stroke="none" width="12" x="464" y="80" /><rect fill="#c6e48b" height="12" stroke="none" width="12" x="464" y="96" /><rect fill="#ebedf0" height="12" stroke="none" width="12" x="480" y="0" /><rect fill="#ebedf0" height="12" stroke="none" width="12" x="480" y="16" /><rect fill="#ebedf0" height="12" stroke="none" width="12" x="480" y="32" /><rect fill="#ebedf0" height="12" stroke="none" width="12" x="480" y="48" /><rect fill="#ebedf0" height="12" stroke="none" width="12" x="480" y="64" /><rect fill="#ebedf0" height="12" stroke="none" width="12" x="480" y="80" /><rect fill="#ebedf0" height="12" stroke="none" width="12" x="480" y="96" /><rect fill="#ebedf0" height="12" stroke="none" width="12" x="496" y="0" /><rect fill="#ebedf0" height="12" stroke="none" width="12" x="496" y="16" /><rect fill="#ebedf0" height="12" stroke="none" width="12" x="496" y="32" /><rect fill="#ebedf0" height="12" stroke="none" width="12" x="496" y="48" /><rect fill="#ebedf0" height="12" stroke="none" width="12" x="496" y="64" /><rect fill="#ebedf0" height="12" stroke="none" width="12" x="496" y="80" /><rect fill="#ebedf0" height="12" stroke="none" width="12" x="496" y="96" /><rect fill="#ebedf0" height="12" stroke="none" width="12" x="512" y="0" /><rect fill="#ebedf0" height="12" stroke="none" width="12" x="512" y="16" /><rect fill="#ebedf0" height="12" stroke="none" width="12" x="512" y="32" /><rect fill="#ebedf0" height="12" stroke="none" width="12" x="512" y="48" /><rect fill="#ebedf0" height="12" stroke="none" width="12" x="512" y="64" /><rect fill="#ebedf0" height="12" stroke="none" width="12" x="512" y="80" /><rect fill="#ebedf0" height="12" stroke="none" width="12" x="512" y="96" /><rect fill="#ebedf0" height="12" stroke="none" width="12" x="528" y="0" /><rect fill="#c6e48b" height="12" stroke="none" width="12" x="528" y="16" /><rect fill="#ebedf0" height="12" stroke="none" width="12" x="528" y="32" /><rect fill="#ebedf0" height="12" stroke="none" width="12" x="528" y="48" /><rect fill="#ebedf0" height="12" stroke="none" width="12" x="528" y="64" /><rect fill="#c6e48b" height="12" stroke="none" width="12" x="528" y="80" /><rect fill="#c6e48b" height="12" stroke="none" width="12" x="528" y="96" /><rect fill="#ebedf0" height="12" stroke="none" width="12" x="544" y="0" /><rect fill="#ebedf0" height="12" stroke="none" width="12" x="544" y="16" /><rect fill="#ebedf0" height="12" stroke="none" width="12" x="544" y="32" /><rect fill="#ebedf0" height="12" stroke="none" width="12" x="544" y="48" /><rect fill="#ebedf0" height="12" stroke="none" width="12" x="544" y="64" /><rect fill="#ebedf0" height="12" stroke="none" width="12" x="544" y="80" /><rect fill="#c6e48b" height="12" stroke="none" width="12" x="544" y="96" /><rect fill="#ebedf0" height="12" stroke="none" width="12" x="560" y="0" /><rect fill="#ebedf0" height="12" stroke="none" width="12" x="560" y="16" /><rect fill="#c6e48b" height="12" stroke="none" width="12" x="560" y="32" /><rect fill="#ebedf0" height="12" stroke="none" width="12" x="560" y="48" /><rect fill="#ebedf0" height="12" stroke="none" width="12" x="560" y="64" /><rect fill="#c6e48b" height="12" stroke="none" width="12" x="560" y="80" /><rect fill="#c6e48b" height="12" stroke="none" width="12" x="560" y="96" /><rect fill="#ebedf0" height="12" stroke="none" width="12" x="576" y="0" /><rect fill="#ebedf0" height="12" stroke="none" width="12" x="576" y="16" /><rect fill="#ebedf0" height="12" stroke="none" width="12" x="576" y="32" /><rect fill="#ebedf0" height="12" stroke="none" width="12" x="576" y="48" /><rect fill="#c6e48b" height="12" stroke="none" width="12" x="576" y="64" /><rect fill="#ebedf0" height="12" stroke="none" width="12" x="576" y="80" /><rect fill="#c6e48b" height="12" stroke="none" width="12" x="576" y="96" /><rect fill="#ebedf0" height="12" stroke="none" width="12" x="592" y="0" /><rect fill="#ebedf0" height="12" stroke="none" width="12" x="592" y="16" /><rect fill="#c6e48b" height="12" stroke="none" width="12" x="592" y="32" /><rect fill="#c6e48b" height="12" stroke="none" width="12" x="592" y="48" /><rect fill="#c6e48b" height="12" stroke="none" width="12" x="592" y="64" /><rect fill="#ebedf0" height="12" stroke="none" width="12" x="592" y="80" /><rect fill="#c6e48b" height="12" stroke="none" width="12" x="592" y="96" /><rect fill="#ebedf0" height="12" stroke="none" width="12" x="608" y="0" /><rect fill="#ebedf0" height="12" stroke="none" width="12" x="608" y="16" /><rect fill="#ebedf0" height="12" stroke="none" width="12" x="608" y="32" /><rect fill="#c6e48b" height="12" stroke="none" width="12" x="608" y="48" /><rect fill="#c6e48b" height="12" stroke="none" width="12" x="608" y="64" /><rect fill="#ebedf0" height="12" stroke="none" width="12" x="608" y="80" /><rect fill="#c6e48b" height="12" stroke="none" width="12" x="608" y="96" /><rect fill="#c6e48b" height="12" stroke="none" width="12" x="624" y="0" /><rect fill="#ebedf0" height="12" stroke="none" width="12" x="624" y="16" /><rect fill="#c6e48b" height="12" stroke="none" width="12" x="624" y="32" /><rect fill="#c6e48b" height="12" stroke="none" width="12" x="624" y="48" /><rect fill="#c6e48b" height="12" stroke="none" width="12" x="624" y="64" /><rect fill="#ebedf0" height="12" stroke="none" width="12" x="624" y="80" /><rect fill="#c6e48b" height="12" stroke="none" width="12" x="624" y="96" /><rect fill="#ebedf0" height="12" stroke="none" width="12" x="640" y="0" /><rect fill="#ebedf0" height="12" stroke="none" width="12" x="640" y="16" /><rect fill="#ebedf0" height="12" stroke="none" width="12" x="640" y="32" /><rect fill="#ebedf0" height="12" stroke="none" width="12" x="640" y="48" /><rect fill="#ebedf0" height="12" stroke="none" width="12" x="640" y="64" /><rect fill="#ebedf0" height="12" stroke="none" width="12" x="640" y="80" /><rect fill="#ebedf0" height="12" stroke="none" width="12" x="640" y="96" /><rect fill="#ebedf0" height="12" stroke="none" width="12" x="656" y="0" /><rect fill="#7bc96f" height="12" stroke="none" width="12" x="656" y="16" /><rect fill="#ebedf0" height="12" stroke="none" width="12" x="656" y="32" /><rect fill="#ebedf0" height="12" stroke="none" width="12" x="656" y="48" /><rect fill="#ebedf0" height="12" stroke="none" width="12" x="656" y="64" /><rect fill="#ebedf0" height="12" stroke="none" width="12" x="656" y="80" /><rect fill="#ebedf0" height="12" stroke="none" width="12" x="656" y="96" /><rect fill="#c6e48b" height="12" stroke="none" width="12" x="672" y="0" /><rect fill="#ebedf0" height="12" stroke="none" width="12" x="672" y="16" /><rect fill="#ebedf0" height="12" stroke="none" width="12" x="672" y="32" /><rect fill="#7bc96f" height="12" stroke="none" width="12" x="672" y="48" /><rect fill="#ebedf0" height="12" stroke="none" width="12" x="672" y="64" /><rect fill="#7bc96f" height="12" stroke="none" width="12" x="672" y="80" /><rect fill="#ebedf0" height="12" stroke="none" width="12" x="672" y="96" /><rect fill="#ebedf0" height="12" stroke="none" width="12" x="688" y="0" /><rect fill="#c6e48b" height="12" stroke="none" width="12" x="688" y="16" /><rect fill="#ebedf0" height="12" stroke="none" width="12" x="688" y="32" /><rect fill="#c6e48b" height="12" stroke="none" width="12" x="688" y="48" /><rect fill="#ebedf0" height="12" stroke="none" width="12" x="688" y="64" /><rect fill="#ebedf0" height="12" stroke="none" width="12" x="688" y="80" /><rect fill="#7bc96f" height="12" stroke="none" width="12" x="688" y="96" /><rect fill="#ebedf0" height="12" stroke="none" width="12" x="704" y="0" /><rect fill="#ebedf0" height="12" stroke="none" width="12" x="704" y="16" /><rect fill="#ebedf0" height="12" stroke="none" width="12" x="704" y="32" /><rect fill="#7bc96f" height="12" stroke="none" width="12" x="704" y="48" /><rect fill="#ebedf0" height="12" stroke="none" width="12" x="704" y="64" /><rect fill="#ebedf0" height="12" stroke="none" width="12" x="704" y="80" /><rect fill="#c6e48b" height="12" stroke="none" width="12" x="704" y="96" /><rect fill="#ebedf0" height="12" stroke="none" width="12" x="720" y="0" /><rect fill="#c6e48b" height="12" stroke="none" width="12" x="720" y="16" /><rect fill="#ebedf0" height="12" stroke="none" width="12" x="720" y="32" /><rect fill="#7bc96f" height="12" stroke="none" width="12" x="720" y="48" /><rect fill="#ebedf0" height="12" stroke="none" width="12" x="720" y="64" /><rect fill="#ebedf0" height="12" stroke="none" width="12" x="720" y="80" /><rect fill="#239a3b" height="12" stroke="none" width="12" x="720" y="96" /><rect fill="#ebedf0" height="12" stroke="none" width="12" x="736" y="0" /><rect fill="#ebedf0" height="12" stroke="none" width="12" x="736" y="16" /><rect fill="#ebedf0" height="12" stroke="none" width="12" x="736" y="32" /><rect fill="#ebedf0" height="12" stroke="none" width="12" x="736" y="48" /><rect fill="#ebedf0" height="12" stroke="none" width="12" x="736" y="64" /><rect fill="#ebedf0" height="12" stroke="none" width="12" x="736" y="80" /><rect fill="#ebedf0" height="12" stroke="none" width="12" x="736" y="96" /><rect fill="#ebedf0" height="12" stroke="none" width="12" x="752" y="0" /><rect fill="#ebedf0" height="12" stroke="none" width="12" x="752" y="16" /><rect fill="#ebedf0" height="12" stroke="none" width="12" x="752" y="32" /><rect fill="#ebedf0" height="12" stroke="none" width="12" x="752" y="48" /><rect fill="#ebedf0" height="12" stroke="none" width="12" x="752" y="64" /><rect fill="#ebedf0" height="12" stroke="none" width="12" x="752" y="80" /><rect fill="#ebedf0" height="12" stroke="none" width="12" x="752" y="96" /><rect fill="#ebedf0" height="12" stroke="none" width="12" x="768" y="0" /><rect fill="#ebedf0" height="12" stroke="none" width="12" x="768" y="16" /><rect fill="#ebedf0" height="12" stroke="none" width="12" x="768" y="32" /><rect fill="#ebedf0" height="12" stroke="none" width="12" x="768" y="48" /><rect fill="#ebedf0" height="12" stroke="none" width="12" x="768" y="64" /><rect fill="#ebedf0" height="12" stroke="none" width="12" x="768" y="80" /><rect fill="#7bc96f" height="12" stroke="none" width="12" x="768" y="96" /><rect fill="#ebedf0" height="12" stroke="none" width="12" x="784" y="0" /><rect fill="#ebedf0" height="12" stroke="none" width="12" x="784" y="16" /><rect fill="#c6e48b" height="12" stroke="none" width="12" x="784" y="32" /><rect fill="#ebedf0" height="12" stroke="none" width="12" x="784" y="48" /><rect fill="#7bc96f" height="12" stroke="none" width="12" x="784" y="64" /><rect fill="#ebedf0" height="12" stroke="none" width="12" x="784" y="80" /><rect fill="#ebedf0" height="12" stroke="none" width="12" x="784" y="96" /><rect fill="#ebedf0" height="12" stroke="none" width="12" x="800" y="0" /><rect fill="#ebedf0" height="12" stroke="none" width="12" x="800" y="16" /><rect fill="#ebedf0" height="12" stroke="none" width="12" x="800" y="32" /><rect fill="#ebedf0" height="12" stroke="none" width="12" x="800" y="48" /><rect fill="#c6e48b" height="12" stroke="none" width="12" x="800" y="64" /><rect fill="#ebedf0" height="12" stroke="none" width="12" x="800" y="80" /><rect fill="#ebedf0" height="12" stroke="none" width="12" x="800" y="96" /><rect fill="#ebedf0" height="12" stroke="none" width="12" x="816" y="0" /><rect fill="#ebedf0" height="12" stroke="none" width="12" x="816" y="16" /><rect fill="#7bc96f" height="12" stroke="none" width="12" x="816" y="32" /><rect fill="#c6e48b" height="12" stroke="none" width="12" x="816" y="48" /><rect fill="#239a3b" height="12" stroke="none" width="12" x="816" y="64" /><rect fill="#ebedf0" height="12" stroke="none" width="12" x="816" y="80" /><rect fill="#7bc96f" height="12" stroke="none" width="12" x="816" y="96" /><rect fill="#ebedf0" height="12" stroke="none" width="12" x="832" y="0" /><rect fill="#ebedf0" height="12" stroke="none" width="12" x="832" y="16" /><rect fill="#ebedf0" height="12" stroke="none" width="12" x="832" y="32" /><rect fill="#c6e48b" height="12" stroke="none" width="12" x="832" y="48" /><rect fill="#7bc96f" height="12" stroke="none" width="12" x="832" y="64" /><rect fill="#c6e48b" height="12" stroke="none" width="12" x="832" y="80" /><rect fill="#7bc96f" height="12" stroke="none" width="12" x="832" y="96" /></svg>